<?xml version="1.0" encoding="UTF-8" standalone="no"?>
<svg
   xmlns:dc="http://purl.org/dc/elements/1.1/"
   xmlns:cc="http://creativecommons.org/ns#"
   xmlns:rdf="http://www.w3.org/1999/02/22-rdf-syntax-ns#"
   xmlns:svg="http://www.w3.org/2000/svg"
   xmlns="http://www.w3.org/2000/svg"
   xmlns:sodipodi="http://sodipodi.sourceforge.net/DTD/sodipodi-0.dtd"
   xmlns:inkscape="http://www.inkscape.org/namespaces/inkscape"
   version="1.1"
   id="svg2"
   xml:space="preserve"
   width="666.66669"
   height="666.66669"
   viewBox="0 0 666.66669 666.66669"
   sodipodi:docname="4519657.eps"><metadata
     id="metadata8"><rdf:RDF><cc:Work
         rdf:about=""><dc:format>image/svg+xml</dc:format><dc:type
           rdf:resource="http://purl.org/dc/dcmitype/StillImage" /></cc:Work></rdf:RDF></metadata><defs
     id="defs6"><clipPath
       clipPathUnits="userSpaceOnUse"
       id="clipPath98"><path
         d="m 3530.7,1055.97 h 508.9 c 484.04,0 876.44,392.39 876.44,876.43 0,484.04 -392.4,876.43 -876.44,876.43 h -508.9 c -484.03,0 -876.42,-392.39 -876.42,-876.43 0,-484.04 392.39,-876.43 876.42,-876.43"
         id="path96" /></clipPath><clipPath
       clipPathUnits="userSpaceOnUse"
       id="clipPath110"><path
         d="m 3530.7,1055.97 h 508.9 c 484.04,0 876.44,392.39 876.44,876.43 0,484.04 -392.4,876.43 -876.44,876.43 h -508.9 c -484.03,0 -876.42,-392.39 -876.42,-876.43 0,-484.04 392.39,-876.43 876.42,-876.43"
         id="path108" /></clipPath><clipPath
       clipPathUnits="userSpaceOnUse"
       id="clipPath116"><path
         d="m 4053.44,1059.73 -0.03,0.39 h 5.02 l -4.99,-0.39"
         id="path114" /></clipPath><clipPath
       clipPathUnits="userSpaceOnUse"
       id="clipPath126"><path
         d="m 3530.7,1055.97 h 508.9 c 484.04,0 876.44,392.39 876.44,876.43 0,484.04 -392.4,876.43 -876.44,876.43 h -508.9 c -484.03,0 -876.42,-392.39 -876.42,-876.43 0,-484.04 392.39,-876.43 876.42,-876.43"
         id="path124" /></clipPath><clipPath
       clipPathUnits="userSpaceOnUse"
       id="clipPath240"><path
         d="m 1119.71,1062.41 h 602.81 c 573.36,0 1038.16,464.81 1038.16,1038.17 0,573.37 -464.8,1038.17 -1038.16,1038.17 h -602.81 c -573.366,0 -1038.1709,-464.8 -1038.1709,-1038.17 0,-573.36 464.8049,-1038.17 1038.1709,-1038.17"
         id="path238" /></clipPath></defs><sodipodi:namedview
     pagecolor="#ffffff"
     bordercolor="#666666"
     borderopacity="1"
     objecttolerance="10"
     gridtolerance="10"
     guidetolerance="10"
     inkscape:pageopacity="0"
     inkscape:pageshadow="2"
     inkscape:window-width="640"
     inkscape:window-height="480"
     id="namedview4" /><g
     id="g10"
     inkscape:groupmode="layer"
     inkscape:label="ink_ext_XXXXXX"
     transform="matrix(1.3333333,0,0,-1.3333333,0,666.66667)"><g
       id="g12"
       transform="scale(0.1)"><path
         d="M 0,0 H 5000 V 5000 H 0 Z"
         style="fill:#ffffff;fill-opacity:1;fill-rule:nonzero;stroke:none"
         id="path14" /><path
         d="m 3361.59,3395.18 c -228.24,0 -413.26,185.03 -413.26,413.27 0,228.24 185.02,413.26 413.26,413.26 228.24,0 413.27,-185.02 413.27,-413.26 0,-228.24 -185.03,-413.27 -413.27,-413.27 z m 668.79,277.19 v 272.16 l -165.13,28 c -8.56,26.31 -19.11,51.72 -31.49,76.03 l 96.96,136.57 -192.44,192.44 -136.57,-96.96 c -24.32,12.39 -49.73,22.94 -76.04,31.5 l -28,165.12 h -136.08 -136.07 l -28.01,-165.12 c -26.31,-8.56 -51.72,-19.11 -76.04,-31.5 l -136.56,96.96 -192.44,-192.44 96.96,-136.57 c -12.39,-24.31 -22.94,-49.72 -31.5,-76.03 l -165.13,-28 v -272.16 l 165.13,-28 c 8.56,-26.31 19.11,-51.72 31.5,-76.04 l -96.96,-136.57 192.44,-192.44 136.56,96.96 c 24.32,-12.38 49.73,-22.93 76.04,-31.49 l 28.01,-165.13 h 136.07 136.08 l 28,165.13 c 26.31,8.56 51.72,19.11 76.04,31.49 l 136.57,-96.96 192.44,192.44 -96.96,136.57 c 12.38,24.32 22.93,49.73 31.49,76.04 l 165.13,28"
         style="fill:#f6f8fd;fill-opacity:1;fill-rule:nonzero;stroke:none"
         id="path16" /><path
         d="m 3361.59,3452.57 c -196.54,0 -355.88,159.33 -355.88,355.88 0,196.55 159.34,355.88 355.88,355.88 196.54,0 355.88,-159.33 355.88,-355.88 0,-196.55 -159.34,-355.88 -355.88,-355.88"
         style="fill:#dce3f5;fill-opacity:1;fill-rule:nonzero;stroke:none"
         id="path18" /><path
         d="m 3233.8,3787.48 88.89,-88.89 166.7,166.69 -35.36,35.35 -131.33,-131.33 -53.55,53.54 -35.35,-35.36"
         style="fill:#ffffff;fill-opacity:1;fill-rule:nonzero;stroke:none"
         id="path20" /><path
         d="m 1119.71,1062.41 h 602.81 c 573.36,0 1038.16,464.81 1038.16,1038.17 0,573.37 -464.8,1038.17 -1038.16,1038.17 h -602.81 c -573.366,0 -1038.1709,-464.8 -1038.1709,-1038.17 0,-573.36 464.8049,-1038.17 1038.1709,-1038.17"
         style="fill:#f0f4fb;fill-opacity:1;fill-rule:nonzero;stroke:none"
         id="path22" /><path
         d="m 2722.93,1053.75 -131.31,305.05 -131.3,305.05 -173.74,-173.75 -173.74,-173.74 305.04,-131.3 305.05,-131.31"
         style="fill:#f0f4fb;fill-opacity:1;fill-rule:nonzero;stroke:none"
         id="path24" /><path
         d="m 1915.92,3967.47 v 5 h -203.41 v 198.41 h 198.41 v -203.41 h 5 v 5 -5 h 5 v 213.41 h -218.41 v -218.41 h 218.41 v 5 h -5"
         style="fill:#f0f4fb;fill-opacity:1;fill-rule:nonzero;stroke:none"
         id="path26" /><path
         d="m 2302.96,4098.63 h -287.24 v 27.85 h 287.24 v -27.85"
         style="fill:#c8c9ea;fill-opacity:1;fill-rule:nonzero;stroke:none"
         id="path28" /><path
         d="m 2130.79,4016.86 h -115.07 v 27.85 h 115.07 v -27.85"
         style="fill:#c8c9ea;fill-opacity:1;fill-rule:nonzero;stroke:none"
         id="path30" /><path
         d="m 2351.96,4016.86 h -190.57 v 27.85 h 190.57 v -27.85"
         style="fill:#c8c9ea;fill-opacity:1;fill-rule:nonzero;stroke:none"
         id="path32" /><path
         d="m 2471.76,4098.63 h -119.8 v 27.85 h 119.8 v -27.85"
         style="fill:#c8c9ea;fill-opacity:1;fill-rule:nonzero;stroke:none"
         id="path34" /><path
         d="m 1735.97,4088.46 c 22.3,-13.77 44.6,-27.55 66.9,-41.32 l 13.48,-8.33 7.58,13.92 c 32.98,60.66 76.61,117.79 125.81,166.45 l -21.09,21.33 c -51.24,-50.69 -96.56,-109.99 -131.08,-173.44 l 13.18,-7.17 7.89,12.76 c -22.3,13.78 -44.6,27.55 -66.9,41.33 l -15.77,-25.53"
         style="fill:#f25376;fill-opacity:1;fill-rule:nonzero;stroke:none"
         id="path36" /><path
         d="m 1915.92,3618.46 v 5 h -203.41 v 198.41 h 198.41 v -203.41 h 5 v 5 -5 h 5 v 213.41 h -218.41 v -218.41 h 218.41 v 5 h -5"
         style="fill:#f0f4fb;fill-opacity:1;fill-rule:nonzero;stroke:none"
         id="path38" /><path
         d="m 2302.96,3749.62 h -287.24 v 27.86 h 287.24 v -27.86"
         style="fill:#c8c9ea;fill-opacity:1;fill-rule:nonzero;stroke:none"
         id="path40" /><path
         d="m 2130.79,3667.86 h -115.07 v 27.85 h 115.07 v -27.85"
         style="fill:#c8c9ea;fill-opacity:1;fill-rule:nonzero;stroke:none"
         id="path42" /><path
         d="m 2351.96,3667.86 h -190.57 v 27.85 h 190.57 v -27.85"
         style="fill:#c8c9ea;fill-opacity:1;fill-rule:nonzero;stroke:none"
         id="path44" /><path
         d="m 2471.76,3749.62 h -119.8 v 27.86 h 119.8 v -27.86"
         style="fill:#c8c9ea;fill-opacity:1;fill-rule:nonzero;stroke:none"
         id="path46" /><path
         d="m 1735.97,3739.46 c 22.3,-13.78 44.6,-27.55 66.9,-41.33 l 13.48,-8.33 7.58,13.93 c 32.98,60.65 76.61,117.78 125.81,166.44 l -21.09,21.33 c -51.24,-50.68 -96.56,-109.99 -131.08,-173.44 l 13.18,-7.17 7.89,12.76 c -22.3,13.78 -44.6,27.55 -66.9,41.33 l -15.77,-25.52"
         style="fill:#f25376;fill-opacity:1;fill-rule:nonzero;stroke:none"
         id="path48" /><path
         d="m 1915.92,3269.45 v 5 h -203.41 v 198.41 h 198.41 v -203.41 h 5 v 5 -5 h 5 v 213.41 h -218.41 v -218.41 h 218.41 v 5 h -5"
         style="fill:#f0f4fb;fill-opacity:1;fill-rule:nonzero;stroke:none"
         id="path50" /><path
         d="m 2302.96,3400.62 h -287.24 v 27.85 h 287.24 v -27.85"
         style="fill:#c8c9ea;fill-opacity:1;fill-rule:nonzero;stroke:none"
         id="path52" /><path
         d="m 2130.79,3318.85 h -115.07 v 27.85 h 115.07 v -27.85"
         style="fill:#c8c9ea;fill-opacity:1;fill-rule:nonzero;stroke:none"
         id="path54" /><path
         d="m 2351.96,3318.85 h -190.57 v 27.85 h 190.57 v -27.85"
         style="fill:#c8c9ea;fill-opacity:1;fill-rule:nonzero;stroke:none"
         id="path56" /><path
         d="m 2471.76,3400.62 h -119.8 v 27.85 h 119.8 v -27.85"
         style="fill:#c8c9ea;fill-opacity:1;fill-rule:nonzero;stroke:none"
         id="path58" /><path
         d="m 1735.98,3390.45 c 22.29,-13.77 44.59,-27.55 66.89,-41.32 l 13.48,-8.33 7.58,13.92 c 32.98,60.66 76.61,117.78 125.81,166.45 l -21.09,21.33 c -51.24,-50.69 -96.56,-110 -131.08,-173.44 l 13.18,-7.17 7.89,12.76 c -22.3,13.78 -44.6,27.55 -66.9,41.32 l -15.76,-25.53"
         style="fill:#f25376;fill-opacity:1;fill-rule:nonzero;stroke:none"
         id="path60" /><path
         d="m 1616.2,3172.65 v 1264.58 h 921.39 v -1324.6 h -693.88 v -7.5 h 701.38 v 1339.6 H 1608.7 V 3172.65 h 7.5"
         style="fill:#342b6f;fill-opacity:1;fill-rule:nonzero;stroke:none"
         id="path62" /><g
         id="g64"
         transform="scale(10)"><text
           transform="matrix(1,0,0,-1,188.01,427.991)"
           style="font-variant:normal;font-weight:bold;font-size:10.5661px;font-family:Montserrat;-inkscape-font-specification:Montserrat-Bold;writing-mode:lr-tb;fill:#342b6f;fill-opacity:1;fill-rule:nonzero;stroke:none"
           id="text68"><tspan
             x="0 7.1215515 13.577438 21.882393 25.242413 32.554153"
             y="0"
             sodipodi:role="line"
             id="tspan66">ETHICS</tspan></text></g><path
         d="M 2280.77,4411.31 H 1873 c -17.39,0 -31.5,14.1 -31.5,31.5 v 39.86 c 0,17.39 14.11,31.49 31.5,31.49 h 407.77 c 17.4,0 31.5,-14.1 31.5,-31.49 v -39.86 c 0,-17.4 -14.1,-31.5 -31.5,-31.5"
         style="fill:#342b6f;fill-opacity:1;fill-rule:nonzero;stroke:none"
         id="path70" /><path
         d="m 2076.88,4514.16 c -15.29,0 -27.69,12.41 -27.69,27.7 0,15.29 12.4,27.69 27.69,27.69 15.3,0 27.7,-12.4 27.7,-27.69 0,-15.29 -12.4,-27.7 -27.7,-27.7 z m 0,91 c -39.32,0 -71.2,-31.88 -71.2,-71.21 v -71.21 h 142.42 v 71.21 c 0,39.33 -31.88,71.21 -71.22,71.21"
         style="fill:#342b6f;fill-opacity:1;fill-rule:nonzero;stroke:none"
         id="path72" /><path
         d="m 3073.52,2912.23 h -2.5 c -0.01,-116.33 -47.15,-221.62 -123.38,-297.85 -76.23,-76.23 -181.52,-123.37 -297.85,-123.37 -116.32,0 -221.62,47.14 -297.85,123.37 -76.23,76.23 -123.37,181.52 -123.38,297.85 0.01,116.32 47.15,221.61 123.38,297.85 76.23,76.23 181.53,123.37 297.85,123.37 116.33,0 221.62,-47.14 297.85,-123.37 76.23,-76.24 123.37,-181.53 123.38,-297.85 h 2.5 2.5 c -0.01,235.4 -190.83,426.22 -426.23,426.22 -235.4,0 -426.22,-190.82 -426.23,-426.22 0.01,-235.4 190.83,-426.22 426.23,-426.22 235.4,0 426.22,190.82 426.23,426.22 h -2.5"
         style="fill:#dce3f5;fill-opacity:1;fill-rule:nonzero;stroke:none"
         id="path74" /><path
         d="m 2922.25,2912.23 h -2.5 c 0,-116.58 -30.41,-222.08 -79.41,-298.27 -49.03,-76.22 -116.43,-122.97 -190.55,-122.95 -74.12,-0.02 -141.52,46.73 -190.55,122.95 -49,76.19 -79.41,181.69 -79.41,298.27 0,116.57 30.41,222.07 79.41,298.26 49.03,76.23 116.43,122.97 190.55,122.96 74.12,0.01 141.52,-46.73 190.55,-122.96 49,-76.19 79.41,-181.69 79.41,-298.26 h 2.5 2.5 c -0.01,117.44 -30.59,223.8 -80.2,300.97 -49.58,77.13 -118.4,125.24 -194.76,125.25 -76.35,-0.01 -145.18,-48.12 -194.76,-125.25 -49.61,-77.17 -80.19,-183.53 -80.2,-300.97 0.01,-117.45 30.59,-223.8 80.2,-300.97 49.58,-77.13 118.41,-125.24 194.76,-125.25 76.36,0.01 145.18,48.12 194.76,125.25 49.61,77.17 80.19,183.52 80.2,300.97 h -2.5"
         style="fill:#dce3f5;fill-opacity:1;fill-rule:nonzero;stroke:none"
         id="path76" /><path
         d="m 2996.87,3156.63 c -98.81,-30.31 -218.34,-48.06 -347.08,-48.06 -128.75,0 -248.27,17.75 -347.1,48.06 l -1.47,-4.78 c 99.38,-30.48 219.36,-48.27 348.57,-48.28 129.2,0.01 249.18,17.8 348.55,48.28 l -1.47,4.78"
         style="fill:#dce3f5;fill-opacity:1;fill-rule:nonzero;stroke:none"
         id="path78" /><path
         d="m 2302.7,2667.82 c 98.82,30.32 218.35,48.06 347.09,48.06 127.83,0 246.57,-17.49 344.98,-47.41 l 1.46,4.78 c -98.96,30.09 -218.15,47.63 -346.44,47.63 -129.2,0 -249.18,-17.8 -348.56,-48.28 l 1.47,-4.78"
         style="fill:#dce3f5;fill-opacity:1;fill-rule:nonzero;stroke:none"
         id="path80" /><path
         d="m 2226.06,2909.73 h 847.461 v 5 H 2226.06 Z"
         style="fill:#dce3f5;fill-opacity:1;fill-rule:nonzero;stroke:none"
         id="path82" /><path
         d="m 2647.29,2488.51 h 5 v 847.438 h -5 z"
         style="fill:#dce3f5;fill-opacity:1;fill-rule:nonzero;stroke:none"
         id="path84" /><path
         d="m 2649.79,2839.61 c -40.71,0 -73.71,33 -73.71,73.71 0,40.71 33,73.71 73.71,73.71 40.71,0 73.72,-33 73.72,-73.71 0,-40.71 -33.01,-73.71 -73.72,-73.71 z m 180.43,37 v 73.42 l -44.55,7.56 c -2.31,7.1 -5.15,13.95 -8.49,20.51 l 26.15,36.85 -51.91,51.92 -36.85,-26.16 c -6.56,3.34 -13.42,6.18 -20.51,8.49 l -7.56,44.55 h -36.71 -36.71 l -7.55,-44.55 c -7.1,-2.31 -13.96,-5.15 -20.52,-8.49 l -36.85,26.16 -51.91,-51.92 26.15,-36.85 c -3.34,-6.56 -6.18,-13.41 -8.49,-20.51 l -44.55,-7.56 v -73.42 l 44.55,-7.56 c 2.31,-7.09 5.15,-13.95 8.49,-20.51 l -26.15,-36.85 51.91,-51.91 36.85,26.16 c 6.56,-3.35 13.42,-6.19 20.52,-8.5 l 7.55,-44.55 h 36.71 36.71 l 7.56,44.55 c 7.09,2.31 13.95,5.15 20.51,8.5 l 36.85,-26.16 51.91,51.91 -26.15,36.85 c 3.34,6.56 6.18,13.42 8.49,20.51 l 44.55,7.56"
         style="fill:#9b9fd8;fill-opacity:1;fill-rule:nonzero;stroke:none"
         id="path86" /><path
         d="m 3533.13,1055.97 h 508.9 c 484.04,0 876.43,392.39 876.43,876.43 0,484.04 -392.39,876.43 -876.43,876.43 h -508.9 c -484.04,0 -876.42,-392.39 -876.42,-876.43 0,-484.04 392.38,-876.43 876.42,-876.43"
         style="fill:#e0e4f5;fill-opacity:1;fill-rule:nonzero;stroke:none"
         id="path88" /><path
         d="m 2786.46,936.051 490.09,292.139 -167.47,128.46 -167.47,128.47 -155.15,-549.069"
         style="fill:#e0e4f5;fill-opacity:1;fill-rule:nonzero;stroke:none"
         id="path90" /><g
         id="g92"><g
           id="g94"
           clip-path="url(#clipPath98)"><path
             d="m 3948.93,1978.15 171.9,-918.03 h 481.88 l -191.98,918.03 h -461.8"
             style="fill:#6467ba;fill-opacity:1;fill-rule:nonzero;stroke:none"
             id="path100" /><path
             d="m 3602.05,1978.15 88.73,-918.03 h 534.6 l -151.61,918.03 h -471.72"
             style="fill:#6467ba;fill-opacity:1;fill-rule:nonzero;stroke:none"
             id="path102" /></g></g><g
         id="g104"><g
           id="g106"
           clip-path="url(#clipPath110)"><g
             id="g112"
             clip-path="url(#clipPath116)"><path
               d="m 4053.41,1059.73 h 5.0195 v 0.3906 h -5.0195 z"
               style="fill:#e7eaf7;fill-opacity:1;fill-rule:nonzero;stroke:none"
               id="path118" /></g></g></g><g
         id="g120"><g
           id="g122"
           clip-path="url(#clipPath126)"><path
             d="m 4058.43,1060.12 h -5.02 l -39.06,508.06 9.97,0.77 39.09,-508.45 -4.98,-0.38"
             style="fill:#8787cb;fill-opacity:1;fill-rule:nonzero;stroke:none"
             id="path128" /><path
             d="m 4167.93,1060.12 -66.14,499.34 c 0,0 -89.87,60.32 -152.86,108.18 0,0 34.96,-373.71 219,-607.52"
             style="fill:#151312;fill-opacity:1;fill-rule:nonzero;stroke:none"
             id="path130" /><path
             d="m 4329.77,1978.15 h -5.1 l 4.92,0.96 0.18,-0.96"
             style="fill:#e7eaf7;fill-opacity:1;fill-rule:nonzero;stroke:none"
             id="path132" /><path
             d="m 4476.45,1172.43 -156.68,804.77 4.9,0.95 h 5.1 l 155.83,-800.38 c -3.04,-1.8 -6.09,-3.58 -9.15,-5.34"
             style="fill:#8787cb;fill-opacity:1;fill-rule:nonzero;stroke:none"
             id="path134" /><path
             d="m 3607.93,1913.62 h 815.52 v 7.5 h -815.52 z"
             style="fill:#151312;fill-opacity:1;fill-rule:nonzero;stroke:none"
             id="path136" /><path
             d="m 3781.55,1977.14 c 0.03,-0.11 14.15,-50.3 39.73,-107.67 25.66,-57.35 62.45,-121.95 109.24,-151.01 l 7.18,-4.44 -48.6,264.81 -7.38,-1.35 47.08,-256.51 3.69,0.68 1.97,3.19 c -44.18,27.2 -81.06,90.86 -106.33,147.69 -12.67,28.41 -22.52,55.1 -29.2,74.67 -3.34,9.78 -5.88,17.79 -7.59,23.34 -1.71,5.56 -2.57,8.62 -2.57,8.63 l -7.22,-2.03"
             style="fill:#151312;fill-opacity:1;fill-rule:nonzero;stroke:none"
             id="path138" /><path
             d="m 4164.24,1977.51 17.72,-100.94 7.39,1.3 -17.73,100.93"
             style="fill:#151312;fill-opacity:1;fill-rule:nonzero;stroke:none"
             id="path140" /><path
             d="m 3653.81,1977.51 17.72,-100.94 7.39,1.3 -17.73,100.93"
             style="fill:#151312;fill-opacity:1;fill-rule:nonzero;stroke:none"
             id="path142" /></g></g><path
         d="m 3491.44,3526.41 c 0,0 -109.48,75.49 -125.94,156.9 -9.75,48.2 71.27,125.62 71.27,125.62 0,0 -36.66,87.56 -25.6,101.89 11.06,14.32 181.81,-32.86 181.81,-32.86 0,0 10.73,47.68 25.94,53.41 15.2,5.73 173.27,-80.66 173.27,-80.66 0,0 5.18,48.02 14.32,49.12 9.14,1.1 20.56,-56.27 20.56,-56.27 0,0 63.49,36.1 80.84,28.36 17.35,-7.73 -44.76,-60.58 -44.76,-60.58 0,0 62.36,-7.17 65.54,-22.36 3.18,-15.2 -30.43,-270.89 -30.43,-270.89 l -406.82,8.32"
         style="fill:#151312;fill-opacity:1;fill-rule:nonzero;stroke:none"
         id="path144" /><path
         d="m 3167.95,2091 c 0,0 186.39,-86.18 387.29,-23.79 0,0 -151.31,124.21 -387.29,23.79"
         style="fill:#151312;fill-opacity:1;fill-rule:nonzero;stroke:none"
         id="path146" /><path
         d="m 3290.41,1417.15 152.72,-0.2 78.82,763.95 c 0,0 -111.5,137.5 -162.38,144.31 0,0 -64.35,-37.61 -77.96,-91.37 -13.6,-53.77 8.8,-816.69 8.8,-816.69"
         style="fill:#f689a6;fill-opacity:1;fill-rule:nonzero;stroke:none"
         id="path148" /><path
         d="m 3412.71,3153.82 c -120.67,-16.18 -182.85,-962.16 -182.85,-962.16 l 323.41,-48.36 c 0,0 -37.17,1024.39 -140.56,1010.52"
         style="fill:#342b6f;fill-opacity:1;fill-rule:nonzero;stroke:none"
         id="path150" /><path
         d="m 3555.24,2067.21 c 0,0 51.67,50.35 3.78,96.94 -47.22,45.95 -309.65,46.04 -309.65,46.04 0,0 -80.22,-4.89 -56.42,-65.6 0,0 -38.93,-11.16 -25,-53.59 0,0 228.82,78 387.29,-23.79"
         style="fill:#c8c9ea;fill-opacity:1;fill-rule:nonzero;stroke:none"
         id="path152" /><path
         d="m 4413.16,1978.15 h -808.68 c 0,0 -108.04,91.27 -102.19,147.31 8.55,81.67 -11.47,612.34 -89.58,1028.36 -4.32,22.96 252.5,29.66 252.5,29.66 l 194.59,-10.66 c 92.91,-16.13 256.7,-63.99 313.69,-144.96 40.2,-57.14 158.02,-600.22 226.43,-889.16 0,0 55.32,-53.24 66.2,-91.16 10.87,-37.93 -52.96,-69.39 -52.96,-69.39"
         style="fill:#342b6f;fill-opacity:1;fill-rule:nonzero;stroke:none"
         id="path154" /><path
         d="m 3440.13,2961.54 c 0,-0.01 0.78,-6.38 2.17,-17.93 9.71,-80.85 48.81,-415.13 53.08,-583.78 l 7.5,0.19 c -4.92,193.53 -55.31,602.37 -55.31,602.44 l -7.44,-0.92"
         style="fill:#151312;fill-opacity:1;fill-rule:nonzero;stroke:none"
         id="path156" /><path
         d="m 3613.4,3181.46 c 0.01,-0.18 4.36,-67.54 28.96,-149.41 24.62,-81.85 69.44,-178.4 151.11,-236.56 l 4.35,6.11 c -79.51,56.52 -123.94,151.54 -148.28,232.61 -12.17,40.51 -19.35,77.49 -23.47,104.32 -2.06,13.41 -3.36,24.29 -4.14,31.8 -0.79,7.51 -1.05,11.6 -1.05,11.61 l -7.48,-0.48"
         style="fill:#151312;fill-opacity:1;fill-rule:nonzero;stroke:none"
         id="path158" /><path
         d="m 4104.4,2324.19 c 112.44,182.19 46.97,336.67 46.97,336.67 l -75.18,-300.94 28.21,-35.73"
         style="fill:#151312;fill-opacity:1;fill-rule:nonzero;stroke:none"
         id="path160" /><path
         d="m 3131.35,2455.35 c 0,0 -144.09,39.15 -180.84,38.33 -36.75,-0.82 -69.16,-43.01 -69.16,-43.01 0,0 -107.78,-110.1 -116.73,-127.19 -26.29,-50.18 22.64,-27.22 22.64,-27.22 0,0 -9.95,-26.96 19.97,-28.89 25.64,-1.66 37.06,-1.68 37.06,-1.68 0,0 -3.31,-12.98 19.86,-21.24 23.16,-8.27 172.11,-20.87 251.54,65.19 l 15.66,145.71"
         style="fill:#f689a6;fill-opacity:1;fill-rule:nonzero;stroke:none"
         id="path162" /><path
         d="m 4020.7,3048.04 c -59.8,9.83 -188.84,-554.34 -188.84,-554.34 0,0 183.87,-153.64 213.67,-220.4 0,0 282.41,724.25 -24.83,774.74"
         style="fill:#342b6f;fill-opacity:1;fill-rule:nonzero;stroke:none"
         id="path164" /><path
         d="m 3764.77,2493.7 c 0,0 70.57,-228.11 292.34,-255.15 0,0 -78.26,239.43 -292.34,255.15"
         style="fill:#151312;fill-opacity:1;fill-rule:nonzero;stroke:none"
         id="path166" /><path
         d="m 3115.69,2309.64 15.66,145.71 779.59,26.75 c 0,0 129.01,-121.21 132.11,-172.46 0,0 -42.21,-61.44 -96.82,-71.09 -54.62,-9.65 -830.54,71.09 -830.54,71.09"
         style="fill:#f689a6;fill-opacity:1;fill-rule:nonzero;stroke:none"
         id="path168" /><path
         d="m 3764.77,2493.7 c 0,0 -1.4,72.13 65.41,71.65 65.89,-0.49 252.71,-184.77 252.71,-184.77 0,0 53.65,-59.84 -5.92,-86.33 0,0 19.86,-35.29 -19.86,-55.7 0,0 -108.05,216.26 -292.34,255.15"
         style="fill:#c8c9ea;fill-opacity:1;fill-rule:nonzero;stroke:none"
         id="path170" /><path
         d="m 3849.2,2561.59 c 0,0.02 1.89,6.55 5.25,18.12 11.74,40.48 41.4,142.37 70.54,239.56 14.56,48.59 29,96 40.99,133.96 11.97,37.91 21.59,66.56 26.25,76.98 3.5,7.84 9.04,12.98 15.7,16.32 6.64,3.33 14.42,4.75 21.91,4.75 10.44,0.04 20.36,-2.87 25.15,-6.21 l 4.23,6.2 c -6.77,4.56 -17.59,7.46 -29.38,7.51 -8.41,-0.01 -17.3,-1.56 -25.27,-5.54 -7.96,-3.96 -14.98,-10.47 -19.2,-19.98 -5.7,-12.85 -17.34,-48.24 -31.83,-94.62 -43.4,-138.98 -111.54,-374.95 -111.55,-374.97 l 7.21,-2.08"
         style="fill:#151312;fill-opacity:1;fill-rule:nonzero;stroke:none"
         id="path172" /><path
         d="m 4253.99,2187.92 c 0.01,0 1.6,-0.12 4.53,-0.43 10.28,-1.09 36.67,-4.43 64.66,-12.31 27.99,-7.84 57.5,-20.39 73.94,-38.97 l 5.6,4.98 c -20.93,23.41 -57.87,36.59 -89.62,44.38 -31.76,7.73 -58.4,9.82 -58.52,9.83 l -0.59,-7.48"
         style="fill:#151312;fill-opacity:1;fill-rule:nonzero;stroke:none"
         id="path174" /><path
         d="m 3763.92,982.441 43.92,-507.859 c 0,0 -490.67,-170.812 -874.46,-12.434 l -4.42,483.864 834.96,36.429"
         style="fill:#975565;fill-opacity:1;fill-rule:nonzero;stroke:none"
         id="path176" /><path
         d="m 3783.12,764.91 3.36,-43.41 c 0,0 -353.64,-124.34 -427.85,-123.68 -74.22,0.672 -427.28,86.828 -427.28,86.828 l -0.63,68.454 852.4,11.808"
         style="fill:#151312;fill-opacity:1;fill-rule:nonzero;stroke:none"
         id="path178" /><path
         d="m 3486.83,1304.08 -372.05,-24.68 -61.93,-193.09 65.66,-17.01 23.15,159.41 306.95,29.94 74.08,-184.01 70.48,8.1 -106.34,221.34"
         style="fill:#9d4f6a;fill-opacity:1;fill-rule:nonzero;stroke:none"
         id="path180" /><path
         d="m 3783.12,764.91 -30.77,348.66 -819.81,-11.21 -1.82,-349.258 c 0,0 296.19,-124.2 432.41,-115.793 136.22,8.421 419.99,127.601 419.99,127.601"
         style="fill:#9d4f6a;fill-opacity:1;fill-rule:nonzero;stroke:none"
         id="path182" /><path
         d="m 3425.08,688.43 8.12,-95.59 c 0,0 -51.19,-44.41 -101.31,-9.078 l -7.29,101.187 100.48,3.481"
         style="fill:#f9c478;fill-opacity:1;fill-rule:nonzero;stroke:none"
         id="path184" /><path
         d="m 2932.54,1102.36 -58.26,-24.08 -30.87,-582.721 89.97,-33.411 -0.84,640.212"
         style="fill:#151312;fill-opacity:1;fill-rule:nonzero;stroke:none"
         id="path186" /><path
         d="m 3290.41,1417.15 c 0,0 -47.48,-73.98 -53.39,-83.5 -5.91,-9.53 33.12,-113.01 55.05,-115.87 21.93,-2.87 24.38,75 24.38,75 l 106.69,7.07 c 0,0 43.5,56.01 19.99,117.1 l -152.72,0.2"
         style="fill:#f689a6;fill-opacity:1;fill-rule:nonzero;stroke:none"
         id="path188" /><path
         d="m 3316.45,1292.78 c 0,0 12.4,21.67 28.62,28.23 16.23,6.56 30.3,-24.32 30.3,-24.32 0,0 2.62,30.21 11.07,28.85 8.44,-1.38 21.67,-17.76 21.67,-17.76 0,0 8.39,18.81 16.93,14.03 8.53,-4.8 10.26,-88.97 -2.77,-91.66 -13.04,-2.7 -30.95,10.53 -30.95,10.53 0,0 -8.55,-14.78 -20.11,-15.57 -11.56,-0.79 -18.17,13.53 -18.17,13.53 0,0 -22.52,-22.59 -29.61,-18.05 -7.09,4.53 -23.97,51.45 -6.98,72.19"
         style="fill:#f689a6;fill-opacity:1;fill-rule:nonzero;stroke:none"
         id="path190" /><path
         d="m 3337.97,1360.4 c 0,0 -0.26,-0.58 -0.76,-1.68 -1.78,-3.84 -6.56,-13.66 -12.85,-23.28 -6.23,-9.64 -14.26,-18.96 -21.2,-21.84 l -3.46,-1.49 1.51,-3.46 0.38,-0.9 c 1.76,-4.25 8.92,-23.13 8.89,-41.1 0,-5.92 -0.77,-11.7 -2.63,-16.82 l 7.05,-2.55 c 2.25,6.19 3.07,12.82 3.08,19.37 -0.05,22.67 -9.83,44.77 -9.9,45.01 l -3.43,-1.5 1.48,-3.45 c 5.59,2.43 10.55,6.87 15.1,12.05 13.57,15.54 23.52,38.47 23.61,38.63 l -6.87,3.01"
         style="fill:#151312;fill-opacity:1;fill-rule:nonzero;stroke:none"
         id="path192" /><path
         d="m 3323.43,1324.14 1.2,-0.11 c 2.8,-0.29 10.06,-1.33 16.21,-3.98 3.07,-1.31 5.83,-3.02 7.66,-5.01 1.83,-2.01 2.82,-4.1 2.85,-6.99 l -0.06,-1.19 7.46,-0.73 0.1,1.92 c 0.03,5.59 -2.62,10.2 -6.13,13.36 -5.3,4.79 -12.42,7.13 -18.25,8.53 -5.83,1.37 -10.42,1.67 -10.55,1.68 l -0.49,-7.48"
         style="fill:#151312;fill-opacity:1;fill-rule:nonzero;stroke:none"
         id="path194" /><path
         d="m 3356.42,1301.1 0.44,1.09 c 1.03,2.53 3.82,9.01 7.43,15.02 1.79,3.01 3.8,5.89 5.78,8.06 1.98,2.19 3.96,3.56 5.27,3.9 l 0.57,0.09 1.41,-0.52 c 1.1,-0.71 2.59,-2.51 3.89,-4.89 1.97,-3.56 3.61,-8.25 4.69,-11.98 0.55,-1.87 0.96,-3.5 1.24,-4.66 0.27,-1.16 0.4,-1.81 0.4,-1.81 l 7.36,1.48 c -0.03,0.12 -1.4,6.96 -4.12,14.04 -1.38,3.55 -3.07,7.16 -5.31,10.15 -1.13,1.49 -2.4,2.84 -3.97,3.9 -1.56,1.05 -3.49,1.79 -5.59,1.79 l -2.64,-0.38 c -3.96,-1.19 -7.01,-4 -9.78,-7.25 -8.17,-9.78 -13.97,-25.17 -14.07,-25.34 l 7,-2.69"
         style="fill:#151312;fill-opacity:1;fill-rule:nonzero;stroke:none"
         id="path196" /><path
         d="m 3392.93,1311.8 0.34,0.82 c 0.81,1.94 3.1,6.99 6.27,11.48 3.15,4.57 7.25,8.13 10.4,8.36 l 0.75,0.04 c 1.71,-0.01 3.29,-0.65 5.02,-2.07 2.55,-2.09 5,-5.94 6.75,-10.04 1.77,-4.1 2.9,-8.46 3.28,-11.36 l 7.43,0.98 c -0.67,4.97 -2.68,11.91 -6.15,18.05 -1.74,3.06 -3.85,5.92 -6.52,8.14 -2.65,2.22 -6.01,3.81 -9.81,3.8 l -1.61,-0.09 c -4.04,-0.48 -7.4,-2.59 -10.18,-5.12 -8.24,-7.66 -12.82,-20.08 -12.97,-20.3 l 7,-2.69"
         style="fill:#151312;fill-opacity:1;fill-rule:nonzero;stroke:none"
         id="path198" /><path
         d="m 3912.44,3166.98 c 0,-0.02 -0.78,-4.68 -2.37,-13.12 -5.54,-29.54 -20.78,-104.95 -45.58,-184.53 -24.75,-79.55 -59.27,-163.33 -102.46,-209.1 l 5.47,-5.14 c 51.11,54.41 88.83,156.84 114.24,245.92 25.35,89.04 38.08,164.63 38.1,164.72 l -7.4,1.25"
         style="fill:#151312;fill-opacity:1;fill-rule:nonzero;stroke:none"
         id="path200" /><path
         d="m 3666.65,3177.18 c 0,0 2.14,-158.45 120.94,-306.98 0,0 62.1,188.14 72.21,302.62 l -96.43,-5.56 -96.72,9.92"
         style="fill:#9b9fd8;fill-opacity:1;fill-rule:nonzero;stroke:none"
         id="path202" /><path
         d="m 3859.8,3172.82 -16.99,348.32 -175.19,-19.1 -0.97,-324.86 c 0,0 14.3,-65.36 96.57,-65.36 82.29,0 96.58,61 96.58,61"
         style="fill:#f4668a;fill-opacity:1;fill-rule:nonzero;stroke:none"
         id="path204" /><path
         d="m 3666.85,3242.57 0.18,63.36 c 0,0 77.7,1.55 138.34,87.74 0,0 -22.26,-137.04 -138.52,-151.1"
         style="fill:#151312;fill-opacity:1;fill-rule:nonzero;stroke:none"
         id="path206" /><path
         d="m 3462.59,3519.41 c 0.62,-14.2 2.15,-28.27 4.73,-42.19 4.32,-23.3 11.51,-46.03 21.59,-66.82 26.37,-54.79 72.37,-96.61 136.95,-104.47 70.93,-8.67 139.89,31.48 179.13,91.69 71.11,108.86 89.67,316.26 -36.99,390.11 -14.12,8.29 -28.73,13.87 -43.65,17.18 -70.26,15.46 -144.94,-21.46 -193.2,-77.51 -48.26,-56.05 -71.49,-133.03 -68.56,-207.99"
         style="fill:#f4668a;fill-opacity:1;fill-rule:nonzero;stroke:none"
         id="path208" /><path
         d="m 3661.08,3569.31 c -10.73,7.65 -23.83,11.67 -36.94,11.68 -5.05,0 -10.09,-0.6 -15.01,-1.83 -2.01,-0.5 -3.23,-2.54 -2.73,-4.55 0.5,-2.01 2.54,-3.23 4.55,-2.73 4.3,1.08 8.74,1.61 13.19,1.61 11.57,0 23.21,-3.59 32.59,-10.29 1.68,-1.2 4.03,-0.81 5.23,0.88 1.2,1.68 0.81,4.03 -0.88,5.23"
         style="fill:#151312;fill-opacity:1;fill-rule:nonzero;stroke:none"
         id="path210" /><path
         d="m 3564.57,3569.31 c -10.74,7.65 -23.83,11.67 -36.94,11.68 -5.05,0 -10.1,-0.6 -15.01,-1.83 -2.01,-0.5 -3.24,-2.54 -2.73,-4.55 0.5,-2.01 2.53,-3.23 4.54,-2.73 4.31,1.08 8.75,1.61 13.2,1.61 11.57,0 23.2,-3.59 32.59,-10.29 1.68,-1.2 4.02,-0.81 5.23,0.88 1.2,1.68 0.81,4.03 -0.88,5.23"
         style="fill:#151312;fill-opacity:1;fill-rule:nonzero;stroke:none"
         id="path212" /><path
         d="m 3614.52,3529.73 c -0.22,-8.29 6.32,-15.19 14.6,-15.41 8.29,-0.23 15.2,6.31 15.42,14.6 0.23,8.28 -6.32,15.19 -14.6,15.41 -8.29,0.23 -15.19,-6.31 -15.42,-14.6"
         style="fill:#151312;fill-opacity:1;fill-rule:nonzero;stroke:none"
         id="path214" /><path
         d="m 3523.25,3532.21 c -0.22,-8.29 6.32,-15.19 14.61,-15.42 8.28,-0.22 15.19,6.32 15.41,14.6 0.23,8.29 -6.32,15.19 -14.6,15.41 -8.29,0.23 -15.19,-6.31 -15.42,-14.59"
         style="fill:#151312;fill-opacity:1;fill-rule:nonzero;stroke:none"
         id="path216" /><path
         d="m 3572.75,3471.42 c -2.24,-7.61 -9.84,-12.58 -16.68,-15.64 -3.47,-1.67 -7.09,-2.93 -10.3,-4.35 -1.54,-0.73 -3.16,-1.51 -3.89,-2.17 l -0.22,-0.16 0.17,-1.18 c 0.39,-1.79 2.77,-3.97 5.71,-5.46 2.89,-1.67 6.28,-2.86 9.68,-4.05 6.89,-2.2 14.1,-4.2 21.46,-6.19 -7.59,-1 -15.28,-1.02 -22.93,0.39 -3.84,0.67 -7.64,1.73 -11.45,3.43 -3.54,1.86 -8.06,4.32 -9.68,9.99 -0.3,1.48 -0.46,2.5 -0.2,4.39 0.41,2.14 1.75,3.56 2.8,4.41 2.17,1.73 4.09,2.36 5.99,3.06 3.77,1.28 7.33,2.21 10.85,3.21 6.9,2.14 13.92,4.26 18.69,10.32"
         style="fill:#151312;fill-opacity:1;fill-rule:nonzero;stroke:none"
         id="path218" /><path
         d="m 3639.89,3454.72 c -2.67,-20.32 19.04,-39.93 48.49,-43.8 29.44,-3.87 55.49,9.45 58.15,29.77 2.68,20.32 -19.03,39.93 -48.48,43.8 -29.45,3.87 -55.49,-9.46 -58.16,-29.77"
         style="fill:#f25376;fill-opacity:1;fill-rule:nonzero;stroke:none"
         id="path220" /><path
         d="m 3467.32,3477.22 c 4.32,-23.3 11.51,-46.03 21.59,-66.82 18.23,10.25 28.5,26.92 24.57,42.22 -4.23,16.2 -23.48,25.75 -46.16,24.6"
         style="fill:#f25376;fill-opacity:1;fill-rule:nonzero;stroke:none"
         id="path222" /><path
         d="m 3557.9,3386.13 c 0,0 37.9,-73.69 87.18,7.99 l -87.18,-7.99"
         style="fill:#ffffff;fill-opacity:1;fill-rule:nonzero;stroke:none"
         id="path224" /><path
         d="m 3814.34,3433.43 c 22.29,-13.48 55.34,-13.11 77.37,1.16 22.02,14.27 36.28,41.75 36.11,69.56 -0.15,24.95 -12.69,50.33 -33.56,60.54 -20.86,10.21 -51.85,1.76 -62.11,-20.62 l -17.81,-110.64"
         style="fill:#f4668a;fill-opacity:1;fill-rule:nonzero;stroke:none"
         id="path226" /><path
         d="m 3850.99,3466.03 c 8.68,3.97 16.37,9.26 22.42,15.82 5.98,6.53 10.19,14.62 10.58,22.9 0.58,8.27 -3.04,16.44 -9.51,22.23 -6.49,5.79 -15.16,9.56 -24.5,11.46 9.45,1.01 19.78,-0.87 28.15,-6.89 8.53,-5.77 14.04,-16.5 13.34,-27.2 -0.67,-10.7 -6.39,-20.25 -14,-26.68 -7.54,-6.65 -17.02,-10.47 -26.48,-11.64"
         style="fill:#151312;fill-opacity:1;fill-rule:nonzero;stroke:none"
         id="path228" /><path
         d="m 3460.85,3782.99 c 0,0 13.65,-94.83 77.69,-136.93 64.06,-42.09 176.9,-46.71 196.26,-40.93 19.37,5.78 -26.27,69.04 -26.27,69.04 0,0 97.37,-52.22 137.6,-23.18 40.23,29.05 -5.67,270.11 -385.28,132"
         style="fill:#151312;fill-opacity:1;fill-rule:nonzero;stroke:none"
         id="path230" /><path
         d="m 3831.86,3740.71 c 0,0 -56.18,-124.13 -45.31,-158.26 9.38,-29.47 73.25,-15.68 73.25,-15.68 0,0 67.63,132.56 -27.94,173.94"
         style="fill:#151312;fill-opacity:1;fill-rule:nonzero;stroke:none"
         id="path232" /><g
         id="g234"><g
           id="g236"
           clip-path="url(#clipPath240)"><path
             d="m 920.234,1978.15 c 0,0 -293.57,-150.25 -447.156,-918.03 H 1636.16 l 116.34,918.03 H 920.234"
             style="fill:#6467ba;fill-opacity:1;fill-rule:nonzero;stroke:none"
             id="path242" /><path
             d="m 844.965,1913.62 h 899.836 v 7.5 H 844.965 Z"
             style="fill:#151312;fill-opacity:1;fill-rule:nonzero;stroke:none"
             id="path244" /><path
             d="m 1215.24,1062.41 h -10.09 l 50.74,378.27 9.92,-1.33 -50.57,-376.94"
             style="fill:#8787cb;fill-opacity:1;fill-rule:nonzero;stroke:none"
             id="path246" /><path
             d="m 964.934,1978.15 h -6.114 c 1.336,1.92 2.039,2.9 2.047,2.92 v 0 l 4.067,-2.92"
             style="fill:#f4f7fc;fill-opacity:1;fill-rule:nonzero;stroke:none"
             id="path248" /><path
             d="m 629.504,1185.2 c -3.082,1.66 -6.129,3.31 -9.195,5 63.828,322.69 219.433,600.5 296.218,723.42 h 11.793 c -2.484,-3.95 -5.058,-8.08 -7.718,-12.37 C 891.18,1853.72 851.375,1785.21 809.883,1701.36 741.262,1562.71 668.055,1382.12 629.504,1185.2 m 303.555,735.92 h -11.825 c 19.121,30.32 32.657,49.98 37.586,57.03 h 6.114 l 4.062,-2.91 c -0.004,0 -1.168,-1.62 -3.402,-4.84 -2.235,-3.22 -5.528,-8.02 -9.742,-14.3 -5.911,-8.82 -13.633,-20.56 -22.793,-34.98"
             style="fill:#8787cb;fill-opacity:1;fill-rule:nonzero;stroke:none"
             id="path250" /><path
             d="m 928.32,1913.62 h -11.793 c 1.606,2.57 3.172,5.07 4.707,7.5 h 11.825 c -1.539,-2.42 -3.118,-4.92 -4.739,-7.5"
             style="fill:#373436;fill-opacity:1;fill-rule:nonzero;stroke:none"
             id="path252" /><path
             d="m 1364.86,1563.97 c 0,0 -108.88,-299.92 -252.07,-503.85 h -57.88 l 89.2,371.89 c 0,0 158.43,59.13 220.75,131.96"
             style="fill:#151312;fill-opacity:1;fill-rule:nonzero;stroke:none"
             id="path254" /><path
             d="m 1499.37,1978.76 c 0,-0.01 -0.58,-3.58 -1.7,-10.02 -3.9,-22.53 -14.26,-80.02 -28.48,-140.55 -14.18,-60.49 -32.35,-124.19 -51.36,-158.43 l -4.26,-7.7 8.51,2.26 c 0.46,0.12 39.33,10.55 83.05,54.99 43.73,44.43 92.15,122.84 111.93,258.3 l -7.43,1.09 c -19.61,-134.16 -67.3,-210.86 -109.85,-254.13 -21.28,-21.63 -41.29,-34.91 -55.94,-42.77 -7.33,-3.93 -13.31,-6.5 -17.43,-8.09 -2.06,-0.79 -3.65,-1.34 -4.72,-1.68 l -1.19,-0.37 -0.35,-0.1 0.96,-3.62 3.28,-1.82 c 22.57,40.83 42.96,118.39 57.97,186.11 14.98,67.67 24.4,125.28 24.41,125.32 l -7.4,1.21"
             style="fill:#151312;fill-opacity:1;fill-rule:nonzero;stroke:none"
             id="path256" /></g></g><path
         d="m 2554.79,2521.81 c 0,0 83.93,-153.38 -46.66,-250.04 0,0 -77.32,133.35 46.66,250.04"
         style="fill:#151312;fill-opacity:1;fill-rule:nonzero;stroke:none"
         id="path258" /><path
         d="m 2881.35,2450.67 36.88,5.59 c 0,0 29.06,-51.43 43.61,-51.43 14.53,0 17.88,51.43 8.93,65.96 -8.93,14.53 -52.54,57.01 -70.42,50.31 -17.89,-6.71 -215.61,-65.75 -215.61,-65.75 l 15.65,-145.71 c 21.81,-19.92 57.91,-14.8 57.91,-14.8 0,0 -3.42,18.87 13.55,38.31 19.64,22.53 109.5,117.52 109.5,117.52"
         style="fill:#f4668a;fill-opacity:1;fill-rule:nonzero;stroke:none"
         id="path260" /><path
         d="m 1548.19,3183.48 c 0,0 228.51,-5.67 252.5,-29.66 24,-23.99 -139.13,-647.65 -139.13,-719.8 0,-36.29 112.09,-247.93 141.61,-295.9 29.52,-47.99 -50.67,-159.97 -50.67,-159.97 H 761.461 c 0,0 221.469,968.73 278.449,1049.71 56.98,80.97 222.21,135.13 315.12,151.27 l 193.16,4.35"
         style="fill:#9b9fd8;fill-opacity:1;fill-rule:nonzero;stroke:none"
         id="path262" /><path
         d="m 1548,3219.39 c 0,0 52.75,-5.48 65.34,-22.34 12.6,-16.86 -13.47,-183.7 -57.41,-230.87 l -86.13,62.06 -84.4,-82.06 c 0,0 -98.38,111.85 -93.05,184.57 5.04,68.64 66.08,111.82 66.08,111.82 L 1548,3219.39"
         style="fill:#c8c9ea;fill-opacity:1;fill-rule:nonzero;stroke:none"
         id="path264" /><path
         d="M 506.852,2940.47 796.73,1869.32 c 0,0 562.31,44.33 706.34,261.43 L 1126.04,3174.3 c 0,0 -498.579,-223.77 -619.188,-233.83"
         style="fill:#f2577d;fill-opacity:1;fill-rule:nonzero;stroke:none"
         id="path266" /><path
         d="M 626.664,2883.47 968.961,1827.9 c 0,0 559.439,71.97 692.599,295.91 l -427.98,1023.71 c 0,0 -486.947,-248.06 -606.916,-264.05"
         style="fill:#342b6f;fill-opacity:1;fill-rule:nonzero;stroke:none"
         id="path268" /><path
         d="m 1521.63,3879.31 c 0,0 55.24,61.6 130.82,61.6 56.75,0 164.43,-140.66 179.23,-250.64 18,-133.67 -56.98,-296.6 -329.9,-224.24 -350.32,92.87 -110.97,351.68 19.85,413.28"
         style="fill:#f9c478;fill-opacity:1;fill-rule:nonzero;stroke:none"
         id="path270" /><path
         d="m 1752.25,3519.41 c -0.62,-14.2 -2.15,-28.27 -4.74,-42.19 -4.31,-23.3 -11.5,-46.03 -21.58,-66.82 -26.38,-54.79 -72.37,-96.61 -136.96,-104.47 -70.92,-8.67 -139.88,31.48 -179.12,91.69 -71.11,108.86 -89.67,316.26 36.99,390.11 14.12,8.29 28.73,13.87 43.65,17.18 70.25,15.46 144.93,-21.46 193.19,-77.51 48.27,-56.05 71.5,-133.03 68.57,-207.99"
         style="fill:#f4668a;fill-opacity:1;fill-rule:nonzero;stroke:none"
         id="path272" /><path
         d="m 1558.11,3563.2 c 9.39,6.7 21.02,10.29 32.59,10.29 4.45,0 8.89,-0.53 13.19,-1.61 2.01,-0.5 4.05,0.72 4.55,2.73 0.5,2.01 -0.72,4.05 -2.73,4.55 -4.92,1.23 -9.97,1.83 -15.01,1.83 -13.11,-0.01 -26.21,-4.03 -36.94,-11.68 -1.69,-1.2 -2.08,-3.55 -0.88,-5.23 1.2,-1.69 3.54,-2.08 5.23,-0.88"
         style="fill:#f9c478;fill-opacity:1;fill-rule:nonzero;stroke:none"
         id="path274" /><path
         d="m 1654.62,3563.2 c 9.39,6.7 21.01,10.29 32.59,10.29 4.45,0 8.89,-0.53 13.19,-1.61 2.01,-0.5 4.04,0.72 4.55,2.73 0.5,2.01 -0.72,4.05 -2.73,4.55 -4.92,1.23 -9.97,1.83 -15.01,1.83 -13.11,-0.01 -26.21,-4.03 -36.94,-11.68 -1.69,-1.2 -2.08,-3.55 -0.88,-5.23 1.21,-1.69 3.55,-2.08 5.23,-0.88"
         style="fill:#f9c478;fill-opacity:1;fill-rule:nonzero;stroke:none"
         id="path276" /><path
         d="m 1372.03,3521.14 -17,-348.32 c -3.93,-64.31 32.54,-118.79 83.23,-124.31 58.54,-6.39 110.57,54.51 109.93,128.67 l -0.97,324.86 -175.19,19.1"
         style="fill:#f4668a;fill-opacity:1;fill-rule:nonzero;stroke:none"
         id="path278" /><path
         d="m 1548,3242.57 -0.19,63.36 c 0,0 -77.69,1.55 -138.35,87.74 0,0 22.28,-137.04 138.54,-151.1"
         style="fill:#151312;fill-opacity:1;fill-rule:nonzero;stroke:none"
         id="path280" /><path
         d="m 1421.11,3965.78 c -63.59,-3.15 -308.32,-221.76 -308.32,-388.54 0,-134.13 194.86,-286.28 149.31,-329.72 -45.54,-43.43 -207.19,-183.98 -207.19,-285.95 0,-101.97 288.13,-83.97 291.02,-155.95 2.89,-71.98 -58.91,-101.97 -58.91,-101.97 0,0 183.12,29.99 164.45,149.95 -18.67,119.97 -122.3,83.98 -124.47,137.96 -2.17,53.99 249.14,148.78 40.27,432.03 l 15.43,120.48 c 0,0 141.29,17.33 197.67,147.8 56.37,130.45 -68.59,278.41 -159.26,273.91"
         style="fill:#f9c478;fill-opacity:1;fill-rule:nonzero;stroke:none"
         id="path282" /><path
         d="m 1600.31,3529.73 c 0.23,-8.29 -6.31,-15.19 -14.6,-15.41 -8.28,-0.23 -15.18,6.31 -15.41,14.6 -0.22,8.28 6.31,15.19 14.6,15.41 8.29,0.23 15.19,-6.31 15.41,-14.6"
         style="fill:#151312;fill-opacity:1;fill-rule:nonzero;stroke:none"
         id="path284" /><path
         d="m 1691.58,3532.21 c 0.23,-8.29 -6.31,-15.19 -14.6,-15.42 -8.28,-0.22 -15.19,6.32 -15.41,14.6 -0.23,8.29 6.31,15.19 14.6,15.41 8.28,0.23 15.19,-6.31 15.41,-14.59"
         style="fill:#151312;fill-opacity:1;fill-rule:nonzero;stroke:none"
         id="path286" /><path
         d="m 1642.08,3471.42 c 4.78,-6.06 11.8,-8.18 18.69,-10.32 3.53,-1 7.08,-1.93 10.85,-3.21 1.91,-0.7 3.82,-1.33 6.01,-3.06 1.04,-0.85 2.37,-2.27 2.79,-4.41 0.25,-1.89 0.11,-2.91 -0.21,-4.39 -1.62,-5.67 -6.13,-8.13 -9.66,-9.99 -3.82,-1.7 -7.62,-2.76 -11.46,-3.43 -7.65,-1.41 -15.35,-1.39 -22.93,-0.39 7.36,1.99 14.57,3.99 21.46,6.19 3.41,1.19 6.79,2.38 9.67,4.05 2.95,1.49 5.33,3.67 5.72,5.46 l 0.17,1.18 -0.22,0.16 c -0.73,0.66 -2.35,1.44 -3.89,2.17 -3.21,1.42 -6.83,2.68 -10.31,4.35 -6.84,3.06 -14.43,8.03 -16.68,15.64"
         style="fill:#151312;fill-opacity:1;fill-rule:nonzero;stroke:none"
         id="path288" /><path
         d="m 1574.95,3454.72 c 2.67,-20.32 -19.04,-39.93 -48.49,-43.8 -29.45,-3.87 -55.49,9.45 -58.16,29.77 -2.67,20.32 19.03,39.93 48.49,43.8 29.45,3.87 55.49,-9.46 58.16,-29.77"
         style="fill:#f25376;fill-opacity:1;fill-rule:nonzero;stroke:none"
         id="path290" /><path
         d="m 1747.51,3477.22 c -4.31,-23.3 -11.5,-46.03 -21.58,-66.82 -18.22,10.25 -28.5,26.92 -24.57,42.22 4.23,16.2 23.48,25.75 46.15,24.6"
         style="fill:#f25376;fill-opacity:1;fill-rule:nonzero;stroke:none"
         id="path292" /><path
         d="m 1656.93,3386.13 c 0,0 -37.9,-73.69 -87.17,7.99 l 87.17,-7.99"
         style="fill:#ffffff;fill-opacity:1;fill-rule:nonzero;stroke:none"
         id="path294" /><path
         d="m 1400.5,3433.43 c -22.29,-13.48 -55.34,-13.11 -77.37,1.16 -22.02,14.27 -36.28,41.75 -36.11,69.56 0.16,24.95 12.69,50.33 33.56,60.54 20.87,10.21 51.85,1.76 62.12,-20.62 l 17.8,-110.64"
         style="fill:#f4668a;fill-opacity:1;fill-rule:nonzero;stroke:none"
         id="path296" /><path
         d="m 1363.85,3466.03 c -9.47,1.17 -18.94,4.99 -26.48,11.64 -7.6,6.43 -13.33,15.98 -14.01,26.68 -0.69,10.7 4.81,21.43 13.34,27.2 8.38,6.02 18.71,7.9 28.16,6.89 -9.34,-1.9 -18.01,-5.67 -24.5,-11.46 -6.47,-5.79 -10.09,-13.96 -9.52,-22.23 0.39,-8.28 4.6,-16.37 10.59,-22.9 6.04,-6.56 13.74,-11.85 22.42,-15.82"
         style="fill:#151312;fill-opacity:1;fill-rule:nonzero;stroke:none"
         id="path298" /><path
         d="m 868.961,2447.71 c 0,0 181.259,-159.47 95.973,-251.92 0,0 -173.954,83.98 -95.973,251.92"
         style="fill:#151312;fill-opacity:1;fill-rule:nonzero;stroke:none"
         id="path300" /><path
         d="M 1319.17,2604.77 844.965,2407.73 c 0,0 27.996,-143.96 103.973,-187.94 l 448.582,261.14 -78.35,123.84"
         style="fill:#f4668a;fill-opacity:1;fill-rule:nonzero;stroke:none"
         id="path302" /><path
         d="m 2684.74,2455.35 -512.47,32.49 c 0,0 -38.43,-141.53 10.34,-214.54 l 517.78,36.34 -15.65,145.71"
         style="fill:#f4668a;fill-opacity:1;fill-rule:nonzero;stroke:none"
         id="path304" /><path
         d="m 594.316,2617.84 c 0,0 -301.191,-322.08 -121.242,-454.04 82.399,-60.43 491.86,31.99 491.86,31.99 0,0 -127.965,179.95 -95.973,251.92 l -218.535,-34.58 -56.11,204.71"
         style="fill:#9b9fd8;fill-opacity:1;fill-rule:nonzero;stroke:none"
         id="path306" /><path
         d="m 1319.17,2604.77 c 0,0 33.17,51.42 65.62,80.16 6.8,6.01 114.67,54.24 121.09,45.68 6.41,-8.56 -4.47,-28.69 -13.56,-35.34 0,0 8.45,-17.34 6.16,-21.89 -2.3,-4.54 -4.14,-19.42 -4.14,-19.42 0,0 13.58,-1.2 11.71,-10.71 -1.86,-9.52 -4.07,-19.71 -4.07,-19.71 0,0 18.52,-10.58 20.54,-16.82 6.06,-18.73 -39.16,-102.69 -125,-125.79 l -78.35,123.84"
         style="fill:#f4668a;fill-opacity:1;fill-rule:nonzero;stroke:none"
         id="path308" /><path
         d="m 649.797,2416.83 -90.379,-15.4 1.262,-7.39 90.375,15.4"
         style="fill:#151312;fill-opacity:1;fill-rule:nonzero;stroke:none"
         id="path310" /><path
         d="m 1800.69,3153.82 c 70.7,-3.78 255.93,-632.01 255.93,-632.01 h 498.17 c 0,0 -46.66,-124.08 -46.66,-250.04 0,0 -493.5,0 -565.48,-6 -71.98,-5.99 -242.76,348.52 -290.2,501.86 -36.19,116.95 30.28,392.49 148.24,386.19"
         style="fill:#9b9fd8;fill-opacity:1;fill-rule:nonzero;stroke:none"
         id="path312" /><path
         d="m 1701.09,2638.99 c 0,0 114.6,70.82 108.6,232.61 0,0 71.98,-229.93 -34.02,-390.67 l -74.58,158.06"
         style="fill:#151312;fill-opacity:1;fill-rule:nonzero;stroke:none"
         id="path314" /><path
         d="m 1660.38,2414.61 c -0.01,0.02 -3.54,8.29 -8.85,21.08 -7.98,19.19 -19.94,48.47 -29.89,74.9 -4.98,13.21 -9.45,25.71 -12.66,35.83 -3.22,10.04 -5.12,18.07 -5.06,20.99 l 0.05,0.71 c 0.25,0.92 0.5,1.19 1.16,1.62 0.67,0.4 1.94,0.74 3.68,0.74 5.02,0.06 13.2,-2.89 19.58,-7.32 3.21,-2.19 6.01,-4.74 7.89,-7.26 1.9,-2.53 2.82,-4.94 2.81,-6.93 l -0.17,-1.49 7.31,-1.67 c 0.24,1.05 0.36,2.11 0.36,3.16 -0.01,4.22 -1.79,8.07 -4.31,11.44 -3.82,5.06 -9.47,9.3 -15.48,12.43 -6.04,3.1 -12.36,5.11 -17.99,5.14 -2.62,-0.01 -5.16,-0.45 -7.43,-1.75 -2.28,-1.27 -4.1,-3.61 -4.71,-6.37 l -0.25,-2.45 c 0.02,-3.42 0.99,-7.88 2.57,-13.71 5.54,-20.22 19.13,-55.58 31.37,-86.07 12.24,-30.47 23.12,-55.95 23.12,-55.97 l 6.9,2.95"
         style="fill:#151312;fill-opacity:1;fill-rule:nonzero;stroke:none"
         id="path316" /><path
         d="m 2053.44,2523.8 -46.47,-74.09 6.35,-3.99 46.48,74.09"
         style="fill:#151312;fill-opacity:1;fill-rule:nonzero;stroke:none"
         id="path318" /><path
         d="m 781.344,2434.75 c -0.004,-0.08 -0.91,-11.21 -0.91,-29.47 0.05,-51.12 6.957,-158.13 61.472,-235.28 l 6.121,4.33 c -52.922,74.62 -60.148,180.52 -60.097,230.95 0,9 0.226,16.24 0.449,21.21 0.223,4.98 0.441,7.64 0.441,7.65 l -7.472,0.61"
         style="fill:#151312;fill-opacity:1;fill-rule:nonzero;stroke:none"
         id="path320" /><path
         d="m 2450.14,2523.04 c -0.05,-0.21 -31.59,-90.25 -31.62,-182.37 0,-23.04 1.98,-46.23 6.96,-68.2 l 7.32,1.66 c -4.83,21.28 -6.78,43.93 -6.78,66.54 0,45.22 7.79,90.27 15.61,123.96 3.9,16.84 7.81,30.85 10.74,40.64 1.46,4.89 2.68,8.73 3.53,11.34 0.85,2.6 1.32,3.95 1.32,3.96 l -7.08,2.47"
         style="fill:#151312;fill-opacity:1;fill-rule:nonzero;stroke:none"
         id="path322" /><path
         d="m 4017.35,3432.22 -3.55,-1.2 99.68,-293.49 h 528.6 l -101.37,298.44 h -528.59 l 1.68,-4.95 3.55,1.2 v -3.75 h 517.99 l 96.27,-283.44 h -512.75 l -97.96,288.4 -3.55,-1.21 v -3.75 3.75"
         style="fill:#342b6f;fill-opacity:1;fill-rule:nonzero;stroke:none"
         id="path324" /><path
         d="m 4123.26,3491.99 98.82,-290.95 h 520.67 l -98.81,290.95 h -520.68"
         style="fill:#c8c9ea;fill-opacity:1;fill-rule:nonzero;stroke:none"
         id="path326" /><path
         d="m 4577.66,3077.2 165.09,123.84 h -165.09 z"
         style="fill:#c8c9ea;fill-opacity:1;fill-rule:nonzero;stroke:none"
         id="path328" /><path
         d="m 4669.12,3310.26 h -98.9 v 23.54 h 98.9 v -23.54"
         style="fill:#ffffff;fill-opacity:1;fill-rule:nonzero;stroke:none"
         id="path330" /><path
         d="m 4669.12,3252.17 h -174.06 v 23.54 h 174.06 v -23.54"
         style="fill:#ffffff;fill-opacity:1;fill-rule:nonzero;stroke:none"
         id="path332" /><path
         d="m 1047.54,3797.12 h -3.75 c 0,-82.95 -33.61,-158.02 -87.97,-212.38 -54.363,-54.36 -129.429,-87.97 -212.382,-87.97 -82.954,0 -158.016,33.61 -212.379,87.97 -54.36,54.36 -87.969,129.43 -87.973,212.38 0.004,82.95 33.613,158.01 87.973,212.38 54.363,54.36 129.425,87.97 212.379,87.97 82.953,0 158.019,-33.61 212.382,-87.97 54.36,-54.37 87.97,-129.43 87.97,-212.38 h 3.75 3.75 c 0,170.02 -137.825,307.85 -307.852,307.85 -170.02,0 -307.848,-137.83 -307.852,-307.85 0.004,-170.03 137.832,-307.85 307.852,-307.85 170.027,0 307.852,137.82 307.852,307.85 h -3.75"
         style="fill:#342b6f;fill-opacity:1;fill-rule:nonzero;stroke:none"
         id="path334" /><path
         d="m 941.344,3853.65 c 0,-167.95 -136.149,-304.1 -304.102,-304.1 -167.949,0 -304.101,136.15 -304.101,304.1 0,167.95 136.152,304.1 304.101,304.1 167.953,0 304.102,-136.15 304.102,-304.1"
         style="fill:#e0e4f5;fill-opacity:1;fill-rule:nonzero;stroke:none"
         id="path336" /><path
         d="m 742.07,3599.24 214.993,-102.49 -93.54,220.51 z"
         style="fill:#e0e4f5;fill-opacity:1;fill-rule:nonzero;stroke:none"
         id="path338" /><path
         d="m 637.242,3695.14 c -87.531,0 -158.512,70.92 -158.512,158.51 0,87.53 70.981,158.51 158.512,158.51 60.246,0 112.66,-33.66 139.5,-83.11 12.129,-22.41 19.012,-48.12 19.012,-75.4 0,-87.59 -70.984,-158.51 -158.512,-158.51"
         style="fill:#f25376;fill-opacity:1;fill-rule:nonzero;stroke:none"
         id="path340" /><path
         d="m 637.242,3853.65 v 158.51 c 60.246,0 112.66,-33.66 139.5,-83.11 l -139.5,-75.4"
         style="fill:#ffffff;fill-opacity:1;fill-rule:nonzero;stroke:none"
         id="path342" /><path
         d="M 795.754,3853.65 H 637.242 l 139.5,75.4 c 12.129,-22.41 19.012,-48.12 19.012,-75.4"
         style="fill:#342b6f;fill-opacity:1;fill-rule:nonzero;stroke:none"
         id="path344" /></g></g></svg>
